HIERARCHY
ROOT joint_Root
{
	OFFSET 0.0 0.0 0.0
	CHANNELS 6 Xposition Yposition Zposition Zrotation Xrotation Yrotation 
	JOINT Hips
	{
		OFFSET -0.726466 93.3139 -2.00062
		CHANNELS 6 Xposition Yposition Zposition Zrotation Xrotation Yrotation 
		JOINT Spine
		{
			OFFSET 15.7357 0.0 0.0
			CHANNELS 6 Xposition Yposition Zposition Zrotation Xrotation Yrotation 
			JOINT Chest
			{
				OFFSET 8.98455 -0.406207 0.0
				CHANNELS 6 Xposition Yposition Zposition Zrotation Xrotation Yrotation 
				JOINT Neck
				{
					OFFSET 16.3773 0.0 0.0
					CHANNELS 6 Xposition Yposition Zposition Zrotation Xrotation Yrotation 
					JOINT Head
					{
						OFFSET 6.45672 0.0 0.0
						CHANNELS 6 Xposition Yposition Zposition Zrotation Xrotation Yrotation 
						End Site
						{
							OFFSET 0.0 0.0 0.0
						}
					}
				}
				JOINT Shoulder_L
				{
					OFFSET 12.9942 -0.242716 4.98039
					CHANNELS 6 Xposition Yposition Zposition Zrotation Xrotation Yrotation 
					JOINT UpperArm_L
					{
						OFFSET 5.34809 0.0 0.0
						CHANNELS 6 Xposition Yposition Zposition Zrotation Xrotation Yrotation 
						JOINT LowerArm_L
						{
							OFFSET 24.3286 1.87007e-05 0.0
							CHANNELS 6 Xposition Yposition Zposition Zrotation Xrotation Yrotation 
							JOINT Hand_L
							{
								OFFSET 22.2916 0.0 0.0
								CHANNELS 6 Xposition Yposition Zposition Zrotation Xrotation Yrotation 
								End Site
								{
									OFFSET 0.0 0.0 0.0
								}
							}
						}
					}
				}
				JOINT Shoulder_R
				{
					OFFSET 12.9945 -0.242716 -4.98039
					CHANNELS 6 Xposition Yposition Zposition Zrotation Xrotation Yrotation 
					JOINT UpperArm_R
					{
						OFFSET -5.34813 0.0 0.0
						CHANNELS 6 Xposition Yposition Zposition Zrotation Xrotation Yrotation 
						JOINT LowerArm_R
						{
							OFFSET -24.3289 0.000322201 0.0
							CHANNELS 6 Xposition Yposition Zposition Zrotation Xrotation Yrotation 
							JOINT Hand_R
							{
								OFFSET -22.2915 -0.000108084 0.0
								CHANNELS 6 Xposition Yposition Zposition Zrotation Xrotation Yrotation 
								End Site
								{
									OFFSET 0.0 0.0 0.0
								}
							}
						}
					}
				}
			}
		}
		JOINT UpperLeg_L
		{
			OFFSET -2.19248 -6.46944 0.0
			CHANNELS 6 Xposition Yposition Zposition Zrotation Xrotation Yrotation 
			JOINT LowerLeg_L
			{
				OFFSET 39.0811 0.0 -1.23785e-05
				CHANNELS 6 Xposition Yposition Zposition Zrotation Xrotation Yrotation 
				JOINT Foot_L
				{
					OFFSET 40.9854 0.0 -1.26872e-05
					CHANNELS 6 Xposition Yposition Zposition Zrotation Xrotation Yrotation 
					JOINT Toes_L
					{
						OFFSET 11.7543 0.0 0.0
						CHANNELS 6 Xposition Yposition Zposition Zrotation Xrotation Yrotation 
						End Site
						{
							OFFSET 0.0 0.0 0.0
						}
					}
				}
			}
		}
		JOINT UpperLeg_R
		{
			OFFSET -2.19251 6.46944 0.0
			CHANNELS 6 Xposition Yposition Zposition Zrotation Xrotation Yrotation 
			JOINT LowerLeg_R
			{
				OFFSET -39.0811 -0.00228153 -0.0401928
				CHANNELS 6 Xposition Yposition Zposition Zrotation Xrotation Yrotation 
				JOINT Foot_R
				{
					OFFSET -40.9854 0.0 0.0
					CHANNELS 6 Xposition Yposition Zposition Zrotation Xrotation Yrotation 
					JOINT Toes_R
					{
						OFFSET -11.7543 0.0 0.0
						CHANNELS 6 Xposition Yposition Zposition Zrotation Xrotation Yrotation 
						End Site
						{
							OFFSET 0.0 0.0 0.0
						}
					}
				}
			}
		}
	}
}
MOTION
Frames:	8
Frame Time:	0.0333333
0.000000 0.000000 0.000000 0.000000 0.000000 -0.000000 -182.339000 86.776100 189.845000 1.547210 84.228800 86.734300 15.735700 0.000005 -0.000001 60.635300 80.576700 -57.850200 8.984550 -0.406207 -0.000000 8.975080 -9.165670 6.295800 16.377300 -0.000001 -0.000001 10.105200 1.234180 -2.191230 6.456720 -0.000001 -0.000000 2.741000 9.672470 -2.119490 12.994200 -0.242716 4.980390 -88.877200 -3.260200 -70.984700 5.348090 -0.000007 -0.000001 -42.891100 24.778100 -33.065500 24.328600 0.000019 0.000005 6.002330 3.789530 -57.846900 22.291600 -0.000001 0.000005 8.645380 5.571310 -9.756140 12.994500 -0.242716 -4.980390 88.304900 3.330660 -63.007400 -5.348130 -0.000001 -0.000004 -58.794000 31.509700 -0.334989 -24.328900 0.000322 -0.000009 5.402860 7.569720 -35.682200 -22.291500 -0.000108 -0.000004 1.603250 5.521650 -7.432330 -2.192480 -6.469440 -0.000000 -168.129000 -7.817330 9.960530 39.081100 -0.000007 -0.000012 -0.021688 0.045161 25.652100 40.985400 -0.000006 -0.000013 1.630210 5.181820 -79.183400 11.754300 -0.000000 0.000003 -2.443030 -2.648550 -23.683000 -2.192510 6.469440 -0.000001 -170.325000 17.168200 144.556000 -39.081100 -0.002282 -0.040193 0.035906 -0.071588 24.479100 -40.985400 0.000008 0.000006 4.474840 -2.984980 -45.302300 -11.754300 -0.000006 -0.000006 -0.021669 -0.176365 -23.782000
0.000000 0.000000 0.000000 0.000000 0.000000 -0.000000 -177.914000 86.294900 191.242000 -11.072800 82.684200 100.182000 15.735700 0.000005 -0.000001 60.263600 80.193800 -56.715600 8.984550 -0.406207 -0.000000 9.674710 -9.613220 7.919360 16.377300 -0.000001 -0.000001 9.879060 1.065940 -2.476330 6.456720 -0.000001 -0.000000 2.889090 9.486060 -2.593060 12.994200 -0.242716 4.980390 -89.042300 -2.762630 -70.872400 5.348090 -0.000007 -0.000001 -45.519000 25.823200 -30.102600 24.328600 0.000019 0.000005 7.146270 4.465200 -58.161300 22.291600 -0.000001 0.000005 8.100970 5.579000 -10.159200 12.994500 -0.242716 -4.980390 88.111400 3.689710 -62.869700 -5.348130 -0.000001 -0.000004 -57.910000 31.234900 -0.855983 -24.328900 0.000322 -0.000009 5.317650 7.574610 -35.231800 -22.291500 -0.000108 -0.000004 1.732180 5.521510 -7.426460 -2.192480 -6.469440 -0.000000 -165.134000 -5.643580 11.691300 39.081100 -0.000007 -0.000012 -0.044692 0.084462 27.885200 40.985400 -0.000006 -0.000013 0.357536 6.282870 -75.240700 11.754300 -0.000000 0.000003 -1.559260 -1.545090 -27.966500 -2.192510 6.469440 -0.000001 -170.694000 14.519500 144.090000 -39.081100 -0.002282 -0.040193 0.040052 -0.056281 33.148500 -40.985400 0.000008 0.000006 3.999390 -7.430920 -48.870900 -11.754300 -0.000006 -0.000006 -0.014427 -0.134181 -22.046800
0.000000 0.000000 0.000000 0.000000 0.000000 -0.000000 -173.278000 86.074700 192.582000 -13.877200 81.824800 104.120000 15.735700 0.000005 -0.000001 60.693200 79.874900 -56.746000 8.984550 -0.406207 -0.000000 10.354900 -9.759280 8.791390 16.377300 -0.000001 -0.000001 9.899700 1.042960 -2.569560 6.456720 -0.000001 -0.000000 2.901190 9.268090 -2.906240 12.994200 -0.242716 4.980390 -89.014400 -2.832100 -70.802300 5.348090 -0.000007 -0.000001 -50.012500 26.715700 -25.540600 24.328600 0.000019 0.000005 8.079580 5.135220 -57.767800 22.291600 -0.000001 0.000005 7.482900 5.582200 -10.330600 12.994500 -0.242716 -4.980390 88.157200 3.639410 -63.121800 -5.348130 -0.000001 -0.000004 -57.728200 31.117900 -2.351840 -24.328900 0.000322 -0.000009 5.172380 7.785650 -33.757200 -22.291500 -0.000108 -0.000004 1.775660 5.520370 -7.377280 -2.192480 -6.469440 -0.000000 -163.463000 -3.636920 12.524200 39.081100 -0.000007 -0.000012 -0.019716 0.031320 32.191400 40.985400 -0.000006 -0.000013 -0.528347 5.871090 -69.691700 11.754300 -0.000000 0.000003 -0.107152 -0.461976 -35.894800 -2.192510 6.469440 -0.000001 -170.124000 13.849500 145.124000 -39.081100 -0.002282 -0.040193 0.100065 -0.115431 39.979200 -40.985400 0.000008 0.000006 5.531370 -9.023920 -55.269400 -11.754300 -0.000006 -0.000006 -0.008379 -0.091100 -20.283100
0.000000 0.000000 0.000000 0.000000 0.000000 -0.000000 -168.686000 86.163000 193.875000 -18.923900 82.285100 110.728000 15.735700 0.000005 -0.000001 61.317200 79.673600 -57.622900 8.984550 -0.406207 -0.000000 10.795500 -9.746020 8.322190 16.377300 -0.000001 -0.000001 10.084100 0.533115 -2.289840 6.456720 -0.000001 -0.000000 3.354760 8.484840 -2.580290 12.994200 -0.242716 4.980390 -88.944700 -3.043330 -70.864100 5.348090 -0.000007 -0.000001 -53.766500 28.506400 -21.503200 24.328600 0.000019 0.000005 7.143630 4.914340 -55.645900 22.291600 -0.000001 0.000005 7.374980 5.586870 -10.586100 12.994500 -0.242716 -4.980390 88.041500 3.859830 -63.070100 -5.348130 -0.000001 -0.000004 -57.489900 31.811600 -3.963330 -24.328900 0.000322 -0.000009 5.424310 8.479160 -32.786300 -22.291500 -0.000108 -0.000004 1.757580 5.517830 -7.269280 -2.192480 -6.469440 -0.000000 -163.528000 -2.049640 11.436200 39.081100 -0.000007 -0.000012 0.039063 -0.048067 39.098800 40.985400 -0.000006 -0.000013 -0.017462 4.588490 -61.181900 11.754300 -0.000000 0.000003 -0.149936 -0.554625 -40.033100 -2.192510 6.469440 -0.000001 -170.930000 14.677300 148.210000 -39.081100 -0.002282 -0.040193 0.103917 -0.104332 43.970900 -40.985400 0.000008 0.000006 4.879030 -9.617380 -60.944400 -11.754300 -0.000006 -0.000006 -0.007215 -0.081500 -19.891100
0.000000 0.000000 0.000000 0.000000 0.000000 -0.000000 -164.528000 86.444200 194.985000 -20.677900 83.142200 114.020000 15.735700 0.000005 -0.000001 63.701900 79.699000 -60.439200 8.984550 -0.406207 -0.000000 11.069500 -8.966830 7.403570 16.377300 -0.000001 -0.000001 10.054800 -0.189662 -1.768890 6.456720 -0.000001 -0.000000 3.729420 7.010570 -2.225950 12.994200 -0.242716 4.980390 -88.812600 -3.414000 -70.809600 5.348090 -0.000007 -0.000001 -56.821500 30.735800 -18.428100 24.328600 0.000019 0.000005 7.439360 5.693330 -52.777000 22.291600 -0.000001 0.000005 5.967490 5.586200 -10.544900 12.994500 -0.242716 -4.980390 88.062100 3.839830 -63.194500 -5.348130 -0.000001 -0.000004 -57.706600 32.564100 -5.022330 -24.328900 0.000322 -0.000009 5.543030 8.467760 -33.392800 -22.291500 -0.000108 -0.000004 2.231460 5.520540 -7.384860 -2.192480 -6.469440 -0.000000 -164.054000 -1.445870 8.205530 39.081100 -0.000007 -0.000012 0.113478 -0.101222 48.266400 40.985400 -0.000006 -0.000013 0.019843 2.255710 -52.115100 11.754300 -0.000000 0.000003 -0.053945 -0.311573 -29.423400 -2.192510 6.469440 -0.000001 -171.911000 15.650800 152.128000 -39.081100 -0.002282 -0.040193 0.140374 -0.133454 45.774700 -40.985400 0.000008 0.000006 5.152140 -9.343840 -65.152700 -11.754300 -0.000006 -0.000006 -0.005959 -0.070465 -19.440900
0.000000 0.000000 0.000000 0.000000 0.000000 -0.000000 -160.854000 86.899100 195.825000 -20.620100 83.771400 114.751000 15.735700 0.000005 -0.000001 66.735100 79.902900 -63.784100 8.984550 -0.406207 -0.000000 11.072500 -7.832540 6.666850 16.377300 -0.000001 -0.000001 9.753120 -0.812008 -1.326840 6.456720 -0.000001 -0.000000 3.738770 5.282440 -2.033340 12.994200 -0.242716 4.980390 -88.814900 -3.358100 -70.547900 5.348090 -0.000007 -0.000001 -58.601200 33.059800 -15.960000 24.328600 0.000019 0.000005 8.596800 7.163310 -50.484800 22.291600 -0.000001 0.000005 4.558400 5.579140 -10.158900 12.994500 -0.242716 -4.980390 88.165400 3.696850 -63.583800 -5.348130 -0.000001 -0.000004 -57.718000 33.341300 -6.527770 -24.328900 0.000322 -0.000009 4.905430 7.124010 -34.692200 -22.291500 -0.000108 -0.000004 2.269330 5.520930 -7.401370 -2.192480 -6.469440 -0.000000 -164.728000 -1.832880 3.301130 39.081100 -0.000007 -0.000012 0.175326 -0.114714 56.802800 40.985400 -0.000006 -0.000013 1.742860 -1.633260 -43.958000 11.754300 -0.000000 0.000003 -0.005573 -0.066910 -19.299600 -2.192510 6.469440 -0.000001 -172.715000 15.306100 155.904000 -39.081100 -0.002282 -0.040193 0.137641 -0.130805 45.772300 -40.985400 0.000008 0.000006 4.697660 -9.806180 -67.955300 -11.754300 -0.000006 -0.000006 -0.005582 -0.066989 -19.299200
0.000000 0.000000 0.000000 0.000000 0.000000 -0.000000 -157.528000 87.375900 196.349000 -20.682500 84.275900 115.230000 15.735700 0.000005 -0.000001 69.821800 80.123100 -67.131300 8.984550 -0.406207 -0.000000 10.994300 -6.688280 6.027630 16.377300 -0.000001 -0.000001 9.477680 -1.312380 -1.083270 6.456720 -0.000001 -0.000000 3.737740 3.701560 -1.813110 12.994200 -0.242716 4.980390 -88.871600 -3.103110 -70.005000 5.348090 -0.000007 -0.000001 -60.175000 34.815600 -13.513700 24.328600 0.000019 0.000005 9.129380 8.203060 -48.399300 22.291600 -0.000001 0.000005 3.782490 5.567480 -9.559720 12.994500 -0.242716 -4.980390 88.278200 3.567050 -64.211900 -5.348130 -0.000001 -0.000004 -56.749700 34.722200 -9.162110 -24.328900 0.000322 -0.000009 4.450060 6.157070 -35.971900 -22.291500 -0.000108 -0.000004 2.629210 5.520600 -7.387260 -2.192480 -6.469440 -0.000000 -165.623000 -3.165310 -1.598830 39.081100 -0.000007 -0.000012 0.174838 -0.084350 64.243800 40.985400 -0.000006 -0.000013 4.431570 -5.526110 -47.701100 11.754300 -0.000000 0.000003 -0.006747 -0.077481 -19.730800 -2.192510 6.469440 -0.000001 -173.482000 14.748500 159.442000 -39.081100 -0.002282 -0.040193 0.131947 -0.128963 44.937900 -40.985400 0.000008 0.000006 4.093460 -10.228700 -70.020000 -11.754300 -0.000006 -0.000006 -0.005545 -0.066648 -19.285300
0.000000 0.000000 0.000000 0.000000 0.000000 -0.000000 -154.472000 87.966000 196.668000 -19.795300 85.277400 114.612000 15.735700 0.000005 -0.000001 73.369700 80.383800 -71.119100 8.984550 -0.406207 -0.000000 10.808200 -5.405210 5.013240 16.377300 -0.000001 -0.000001 9.470930 -1.672810 -0.735180 6.456720 -0.000001 -0.000000 3.876600 2.141810 -1.753460 12.994200 -0.242716 4.980390 -88.880800 -2.956680 -69.256300 5.348090 -0.000007 -0.000001 -62.192900 35.554800 -10.993700 24.328600 0.000019 0.000005 8.339810 8.283460 -45.497000 22.291600 -0.000001 0.000005 4.055090 5.567610 -9.566860 12.994500 -0.242716 -4.980390 88.339100 3.541760 -64.855700 -5.348130 -0.000001 -0.000004 -54.698600 36.144200 -12.789700 -24.328900 0.000322 -0.000009 4.508340 5.991510 -37.073600 -22.291500 -0.000108 -0.000004 2.937870 5.520800 -7.396380 -2.192480 -6.469440 -0.000000 -167.179000 -5.211910 -6.816820 39.081100 -0.000007 -0.000012 0.173733 -0.066530 69.044200 40.985400 -0.000006 -0.000013 6.098330 -6.676830 -49.638300 11.754300 -0.000000 0.000003 -0.006487 -0.075205 -19.637900 -2.192510 6.469440 -0.000001 -174.768000 14.875200 162.970000 -39.081100 -0.002282 -0.040193 0.118969 -0.122669 43.325200 -40.985400 0.000008 0.000006 3.712350 -9.765590 -71.403100 -11.754300 -0.000006 -0.000006 -0.005586 -0.067032 -19.300900
